<svg width="59" height="16" viewBox="0 0 59 16" fill="none" xmlns="http://www.w3.org/2000/svg">
  <g>
    <path fill-rule="evenodd" clip-rule="evenodd" d="M32.522 5.63604C32.522 5.17155 32.7706 4.58573 34.6594 4.58573C36.535 4.58573 36.8421 5.30253 36.9924 5.9848C37.0036 6.04049 37.0166 6.11795 37.0272 6.21906H40.4124C40.3925 5.06111 39.8621 4.36422 39.8621 4.36422C38.8167 2.76729 36.4862 2.44497 34.4609 2.44497C30.3349 2.44497 29.1172 4.46471 29.1172 6.03986C29.1172 10.0591 37.3054 8.38969 37.3187 10.5034C37.3222 10.9974 36.8966 11.6144 35.107 11.6144C32.9199 11.6144 32.2237 10.948 32.2237 10.0389H28.645C28.7442 12.907 32.0003 13.7551 35.0075 13.7551C37.0702 13.7551 40.7985 13.1895 40.7985 10.0591C40.7985 6.10053 32.522 7.33253 32.522 5.63604Z" fill="white"/>
    <path fill-rule="evenodd" clip-rule="evenodd" d="M49.7 5.63604C49.7 5.17155 49.9486 4.58573 51.8374 4.58573C53.713 4.58573 54.0201 5.30253 54.1704 5.9848C54.1813 6.04049 54.1943 6.11795 54.2052 6.21906H57.5901C57.5705 5.06111 57.0401 4.36422 57.0401 4.36422C55.9944 2.76729 53.6639 2.44497 51.6389 2.44497C47.5129 2.44497 46.2952 4.46471 46.2952 6.03986C46.2952 10.0591 54.4834 8.38969 54.497 10.5034C54.5001 10.9974 54.0746 11.6144 52.285 11.6144C50.0976 11.6144 49.4017 10.948 49.4017 10.0389H45.8226C45.9225 12.907 49.178 13.7551 52.1852 13.7551C54.2485 13.7551 57.9765 13.1895 57.9765 10.0591C57.9765 6.10053 49.7 7.33253 49.7 5.63604Z" fill="white"/>
    <path d="M44.996 1.44409H41.7483V0.113464H44.996V1.44409Z" fill="white"/>
    <path d="M44.996 13.4207H41.7483V2.44497H44.996V13.4207Z" fill="white"/>
    <path fill-rule="evenodd" clip-rule="evenodd" d="M22.1005 2.44497C23.9528 2.44591 25.3811 2.81053 26.3428 3.52702C27.3337 4.26404 27.8352 5.45933 27.8352 6.93058L27.8349 13.4266H24.5822L24.5825 12.5698C23.9164 13.2816 22.8537 13.7598 20.9164 13.7595H20.3349C18.2866 13.7598 17.2154 13.2256 16.5574 12.4453C16.0313 11.8293 15.7868 11.1312 15.7868 10.2893C15.7868 8.58475 16.6327 7.8664 17.1964 7.5584C18.3805 6.9424 20.3915 6.9424 21.6506 6.9424H24.585V6.93058C24.585 5.34951 23.7024 4.40435 22.1005 4.40404C21.7253 4.40404 21.3862 4.456 21.0878 4.55586L21.0943 4.55617C21.0943 4.55617 21.0782 4.56084 21.053 4.56893C20.95 4.60502 20.8514 4.6464 20.7583 4.694C20.7521 4.69711 20.7456 4.70053 20.7394 4.70395C20.6936 4.72791 20.6491 4.75311 20.6062 4.77986C20.6012 4.78266 20.5966 4.78546 20.5919 4.78826C20.2064 5.03062 19.9252 5.3828 19.7618 5.82893C19.7223 5.94995 19.6903 6.07937 19.6732 6.22249H16.4252C16.4308 6.0996 16.4448 5.98044 16.4635 5.86471C16.4636 5.86386 16.4635 5.86308 16.4637 5.86228C16.464 5.8613 16.4642 5.8603 16.4644 5.85911C16.6097 4.97711 17.0816 4.33373 17.0816 4.33373L17.0857 4.33404C17.2972 4.02604 17.553 3.75382 17.8572 3.52702C18.8204 2.81053 20.2469 2.44591 22.0992 2.44497H22.1005ZM20.9412 11.7493C22.7503 11.7493 24.5884 10.9055 24.5884 9.53447V8.62198C24.5536 8.62198 24.512 8.62189 24.4643 8.62178C23.9528 8.62064 22.7442 8.61795 21.8167 8.71158C20.2953 8.86558 19.0447 9.17576 19.0447 10.3994C19.0447 11.4329 20.1532 11.7493 20.9412 11.7493Z" fill="white"/>
    <path fill-rule="evenodd" clip-rule="evenodd" d="M9.91329 7.66973H4.51956V11.0901H9.63173C10.1578 11.0901 11.6804 11.1277 11.6804 9.28595C11.6804 7.6884 10.4024 7.66973 9.91329 7.66973ZM9.53747 2.44493H4.51956V5.33515H9.27458C9.55644 5.33515 11.1164 5.43813 11.1164 3.8692C11.1164 2.444 9.95124 2.44493 9.53747 2.44493ZM14.4054 11.8044C13.3529 13.4206 11.6614 13.4206 10.346 13.4206H1.26782V0.113464H9.83831C10.8532 0.113464 12.5636 0.152042 13.5595 1.24218C14.1422 1.8812 14.3115 2.68915 14.3115 3.32818C14.3491 5.26391 13.0521 5.92191 12.1125 6.22244C13.0897 6.448 14.9692 7.06835 14.9881 9.56813C14.9881 10.6203 14.6873 11.3909 14.4054 11.8044Z" fill="white"/>
  </g>
</svg>
